<?xml version="1.0" encoding="UTF-8"?>
<svg id="Layer_1" data-name="Layer 1" xmlns="http://www.w3.org/2000/svg" viewBox="0 0 598.18 353.82">
  <defs>
    <style>
      .cls-1 {
        fill: #202020;
      }

      .cls-2 {
        fill: #ffb000;
      }
    </style>
  </defs>
  <g>
    <path d="M498.09,135.59l-13.14-12.38-6-5.65-13.14-12.38-95.36,62.85c4.42,12.76,3.07,19.16-.78,33.03-8.36,30.07-18.39,51.96-46.49,81.79l-.08.08h0s2.19,2.07,2.19,2.07l84.36-89.51,1.61,1.51-84.36,89.51,2.19,2.07h0s.08-.08.08-.08c28.12-29.82,49.37-41.12,78.89-51.25,13.62-4.67,19.93-6.4,32.93-2.74l57.09-98.92Z"/>
    <path d="M598.18,46.75l-19.55-18.43-10.5-9.9-19.55-18.43c-4.35,4.14-39.08,40.93-43.45,46.11-16.2,19.19-25.81,38.91-31.67,54.9l8.92,8.41,10.5,9.9,8.92,8.41c15.62-6.79,34.74-17.55,52.93-34.86,4.9-4.67,39.57-41.52,43.45-46.11Z"/>
    <path class="cls-2" d="M498.39,137.39l-34.38-32.4c-2.1-1.98-2.2-5.31-.22-7.41s5.31-2.2,7.41-.22l34.38,32.4c2.1,1.98,2.2,5.31.22,7.41s-5.31,2.2-7.41.22ZM469.68,98.97c-1.22-1.15-3.14-1.09-4.29.13s-1.09,3.14.13,4.29l34.38,32.4c1.22,1.15,3.14,1.09,4.29-.13s1.09-3.14-.13-4.29l-34.38-32.4Z"/>
  </g>
  <g>
    <path class="cls-1" d="M326.81,285.24c.58-.44.2-.26-1.39.96-.35.32-.7.65-1.05.99l2.44-1.95Z"/>
    <path class="cls-1" d="M315.74,292.96c-1.83,1.5-3.82,3.41-2.38,2.79,1.65-1.71,2.18-1.94,3.99-3.74,1.61-1.21,2.88-1.99,2.66-1.72.54-.47,2.52-1.84,3.31-2.59-2.18,1.45-4.92,3.31-7.58,5.53-.64.37-.12-.12-.01-.27Z"/>
    <path class="cls-1" d="M285.43,264.89c-.23.38-.48.73-.71,1.1.23-.28.48-.65.71-1.1Z"/>
    <path class="cls-1" d="M283.63,191.57c-.62.39-.94.71-.92.77.31-.24.6-.46.79-.6.18-.14.18-.16.13-.17Z"/>
    <path class="cls-1" d="M284.33,205.89c.1-.43.19-.79.28-1.17-.14.44-.26.89-.28,1.17Z"/>
    <path class="cls-1" d="M285.43,264.89c.6-.95,1.18-1.93,1.73-2.94-.31-.38-.93,1.51-1.73,2.94Z"/>
    <path class="cls-1" d="M294.57,309.93c.53-.43.95-.82,1.32-1.2-.44.35-.86.69-1.3,1.04,0,.05,0,.09-.02.16Z"/>
    <path class="cls-1" d="M255.39,309.77l-.61.77c-.05.33-.07.67-.05,1.01l.67-1.78Z"/>
    <path class="cls-1" d="M235.4,337.94c.09-.5-1.76.44-2.53.61.7-.04.94.16,1.17.58.37-.25.8-.65,1.36-1.19Z"/>
    <path class="cls-1" d="M285.5,313l.91-.72c-.24.19-.64.5-.91.72Z"/>
    <path class="cls-1" d="M273.64,286.49c.19.05.4.02.57-.05-.12-.09-.33-.05-.57.05Z"/>
    <path class="cls-1" d="M32.45,179.91s-.03-.02-.03-.04c-.18.15-.23.21.03.04Z"/>
    <path class="cls-1" d="M.12,214.15l.37-.55c.03-.07.05-.14.04-.15l-.41.69Z"/>
    <path class="cls-1" d="M272.13,241.49c.03-.07.04-.09.07-.15.36-.93.15-.41-.07.15Z"/>
    <path class="cls-1" d="M167.4,315.05c1.66-1,.48.05-.59.87-1.05.84-1.9,1.55.65.07-.49.22,3.98-3.61-.07-.94Z"/>
    <path class="cls-1" d="M293.66,310.49c-.45.33-.9.66-1.36,1,.63-.43,1.05-.74,1.36-1Z"/>
    <path class="cls-1" d="M167.46,315.99h0s.53-.31.53-.31c-.22.13-.34.2-.53.31Z"/>
    <path class="cls-1" d="M223.64,313.4c.14-.11.4-.35.67-.59-.03.02-.18.15-.67.59Z"/>
    <path class="cls-1" d="M262.78,261.69l-.79,1.4c.33-.55.58-1,.79-1.4Z"/>
    <path class="cls-1" d="M196.45,333.18c-.78.4-1.06.49-2.09,1.08.11-.03.21-.07.35-.12.35-.25.85-.53,1.75-.96Z"/>
    <path class="cls-1" d="M164.3,346.1c.19.02.43,0,.65-.01.33-.1.71-.21,1.04-.31l-1.69.32Z"/>
    <path class="cls-1" d="M60.93,260.74c.2-.77.4-1.24.6-1.61-.46.53-.49-4.63-.6,1.61Z"/>
    <path class="cls-1" d="M294.36,309.66c-.08.25-.28.49-.7.84.32-.25.63-.49.93-.72.03-.14,0-.22-.23-.12Z"/>
    <path class="cls-1" d="M196.93,336.82c-1.6,1.03-3.2,2.06-4.85,3.01,1.4-.77,3.15-1.89,4.85-3.01Z"/>
    <path class="cls-1" d="M121.5,200.26l-.27,1.26c.14-.47.24-.92.27-1.26Z"/>
    <path class="cls-1" d="M177.09,347.75c-1.03.19-2.09.47-3.17.79-.2.14-.44.28-.56.41,1.26-.37,2.5-.78,3.73-1.2Z"/>
    <path class="cls-1" d="M61.54,259.12s0,.01,0,.01c0,0,0,0,0-.01Z"/>
    <path class="cls-1" d="M60.01,222.47c.19,5.28.79,2.45,1.25,3.55.42,6.32-.44,2.95-.76,5.11.27,3.94.98,6.96.96,9.91-.13.22-.17.8-.33.12.64,4.18-.06,12.42.63,17.32-.08.36-.15.54-.22.63.43-.78.84-.9,1.13-.73-.03,2.39.43,4.44-.13,5.33.05-1.46-.17-1.59-.32-2.28l.18,2.51c-.83,2.24-.19-3.42-.76-3.43.13,4.88.63,10.58.28,14.32-.81.76.01-8.75-.84-3.78l.47-5.77c-1.34,4.39.19-3.51-1.22.52-.47,7.6.11,8.51-.41,16.1.38,1.72.68-.54,1.06,1.18.42,10.83-2.38,8.43-1.59,16.42.48,2.08,1.51,2.9.77,8.55l-.9-1.96c-.32,7.4,1.24,4.25.43,11.99-.37-1.39-.2-5.83-.34-4.71-.88,5.02.47,3.57.42,7.43l-.87.8c.03,3.96.23,8.13.6,12.42.19,2.15.42,4.33.73,6.54.16,1.1.33,2.22.56,3.34.11.56.23,1.13.37,1.7l.23.9.35,1.19c-.22-.28-.58-1-.76-1.22-.09-.09-.17-.11-.19.11-.02.22.05.72.24,1.58.94,2.65,2.48,4.91,5.09,5.46,1.81.28,3.45-.48,4.89-1.73.73-.62,1.39-1.41,2.02-2.2.16-.2.31-.41.46-.62l.32-.45.56-.84c1.45-2.23,2.67-4.49,3.83-6.73,2.31-4.49,4.35-8.95,6.21-13.11l.7-4.1c.34-.89.95-1.53.73-.51,1.71-3.81-.4-.37,0-2.36.75-2.24,1.48-2.79,1.2-1.29,1.87-7.13,5.34-20.18,8.39-27.28l-.22,1.5c2.08-5.63.47-6.93,2.77-12.02l-.18,1.06c4.07-12.34,7.36-26.32,11.03-35.56-.46-2.09,3.81-12.27,2.72-13.44,2.58-6.97,2.27-4.85,5.35-14.82.76-2.68.31-4.22,1.08-7.58l.63.09.57-4.69,1.35-2.21.68-3.16c-.36,1.23-.96,2.57-1.08,2.33,1.05-4.94,3.59-11.76,3.89-11.8.88-3.87,1.77-7.76,2.79-11.53.12.31-.39,2.2-.68,3.76.61-3.11.85-3.32,1.05-3.48.1-.08.2-.15.35-.53.07-.19.16-.47.27-.83.05-.17.11-.36.17-.58l.03-.1v-.02s0,0,0,0c.01.01-.14-.07-.21-.1-.34-.18-.67-.38-.99-.62-.26-.13-.44-.28-.58-.47-.05,0-.06-.11-.05-.1-.02.05-.04.01-.16.08-.11.04-.2.04-.34.03-.18.02-.37.03-.55.03-.2,0-.33-.03-.6-.04-.25,0-.64-.04-.52-.02-.11,0,.3.02.52.02.25,0,.35.04.51.04.29.01.52-.01.69-.03.21.02.29-.03.28-.02-.02,0-.11.04-.3.03-.31.04-.65.04-1.2,0h-.25s0,0-.02,0h.01s.02.01.03.04c.01.04.03.08.04.12.02.1.04.18.06.21-.39,1.23-1.08,3.54-1.78,6.06-.71,2.53-1.44,5.31-2.03,7.7l-.06-1c-2.41,8.53-4.73,18.09-7.11,27.76.97-3.44,1.23-2.52.56.32l-.67,1.03c-.21,1.89.88-2.92.24.91-.93,3.6-1.02,2.32-.65.21l-.92,4.43c-.17.23.01-.82-.07-1.12-.21,1.86-2.12,7.52-2.3,10.23l-.16.23c-2.08,9.74-2.82,14.21-4.17,22.21.25.2-.34,3.32-.48,5.75-.98,5.88-2.02,12.43-2.51,19.62-.18,5.06.12,1.49.15,3.77-.29.35-.44,7.56-.52,3.82-.08,4.33.02,7.11.23,10.16.26,3.05.51,6.41,1.83,11.79-.19-1.19-.4-2.52-.19-1.85.41,1.95.99,4.44.81,4.2l-.17-.5c.93,2.97,2.13,6.13,4,9.09,1.84,2.94,4.51,5.63,7.73,7.21,3.18,1.64,6.65,2.32,9.81,2.5,3.17.15,6.1-.05,8.53-.6l-.55.1c3.4-.55,6.72-1.41,9.94-2.52,2.26-.65,1.6-.42.8-.08-.8.31-1.75.68-.05.27,5.21-1.87,9.19-3.62,12.92-5.36,3.7-1.78,7.14-3.61,10.84-6.25,3.23-1.49,8.44-5.1,13.1-9.94,2.31-2.44,4.49-5.17,6.1-8.14.42-.72.73-1.53,1.09-2.26.32-.77.55-1.58.81-2.33.17-.81.34-1.6.45-2.38.02-.8.1-1.58.06-2.33-.05.24-.15.48-.25.71-.09-.74-.28-1.32-.36-1.82-.13-.48-.22-.9-.29-1.29-.2-.76-.33-1.47-.81-2.41-.04.2.28.9.42,1.41.14.51.19.76-.22-.02-.65-1.35-1.47-2.57-2.38-3.69-.93-1.09-1.93-2.1-3-3.01-2.13-1.83-4.49-3.32-6.94-4.62-4.93-2.54-10.3-4.28-15.93-4.98-5.6-.68-11.63-.4-17.24,2.04-2.78,1.19-5.4,2.82-7.62,4.81-2.24,1.98-4.17,4.23-5.83,6.62-.57.89-1,1.65-1.34,2.3-.3.66-.5,1.22-.65,1.71-.31.97-.34,1.67-.42,2.42-.08.74-.24,1.52-.59,2.7-.38,1.17-1,2.74-1.94,5.12-.04-1.01,0-2.01.05-3.02-2.12,8.01-3.05,16.34-2.47,24.66.32,4.15,1.05,8.3,2.36,12.29,1.31,3.98,3.22,7.85,6.05,11.07-.79-.67-1.05-.53-1.95-1.94.63,1.71,2.78,4.49,5.26,6.31,2.45,1.88,4.95,2.65,5.07,2.42,1.21.63,1.33.73,1.3.89-.03.15-.19.27.56.7,1.71.84,4.06,1.2,6.11,1.29,2.06.07,3.85,0,4.78.3.32.1-.99.23-1.65.23,1.17-.08,3.85-.08,5.91-.35,2.07-.23,3.53-.58,2.43-.78,6.06-.54,11.03-2.87,15.5-4.15,1.29-.92,3.62-1.78,5.66-2.67,2.04-.88,3.8-1.77,4.03-2.41.03.53,2.34-.38,5.03-1.88,2.7-1.45,5.65-3.48,7.1-4.61-.91.87,2.77-1.54,1.72-.51,3.45-2.38,6.41-4.8,5.69-4.57,3.23-2.04,6.14-4.58,8.7-6.84,2.56-2.26,4.77-4.26,6.44-5.6,8.87-8.45,16.63-16.67,23.49-25.27-.09.18-1.99,2.55-3.89,4.78-1.9,2.23-3.77,4.34-3.59,4.18,3.47-3.89,6.06-7.08,8.6-10.3,2.53-3.22,4.97-6.5,7.96-10.72,1.56-2.17-.83,1.27-1.34,2.02,6.03-8.49,11.3-16.7,15.75-24.84,0,.02-.11.25-.28.58-.18.33-.41.75-.63,1.17.91-1.59,2.12-3.69,1.92-3.56l-.84,1.57c-.79,1.23.02-.39,1.01-2.38.98-1.99,2.11-4.36,2.13-4.54-1.03,2.96,4.24-8.12,2.52-3.48.53-1.08,1.12-2.48.9-2.27.82-1.59,1.14-2.07.45-.39,2.79-5.94,1.6-3.92,4.06-9.32.08.06-.37,1.17-.52,1.77,1.08-2.81,2.09-5.66,4.05-10.29-.05.31.26-.2-.31,1.19,3.2-8.03,4.61-13.97,7.22-23.09.03,2.89,1-3.09,1.7-3.48.29-1.71.54-3.43.69-5.18-.21.68-.4,1.37-.63,2.04.3-1.83.43-3.61.37-5.38,0-.46-.04-.83-.09-1.38-.03-.58-.19-1.11-.28-1.65-.28-1.06-.77-1.94-1.59-2.57-.81-.48-1.76-.46-2.66-.28.9-.31,1.91-.39,2.78.04.21.15.43.3.6.49.19.17.38.35.51.57-.12-.24-.3-.43-.48-.61-.17-.2-.38-.36-.59-.53-.72-.41-1.56-.47-2.37-.33-.81.13-1.61.48-2.38.87-.43.24-.67.38-.95.56-.28.17-.54.35-.8.54-.52.37-1.02.75-1.51,1.14.67-.47,1.38-.9,2.11-1.32l.56-.3.65-.32c.49-.21.97-.44,1.47-.55-.35.13-.64.29-.88.44-.25.14-.44.27-.61.39-.33.25-.43.37-.53.5-.17.24-.1.32-.08.4.06.2-.16.31-2.56,2.09.45-.41-.44.28-1.64,1.28-1.2,1-2.71,2.33-3.71,2.99h0c-1.36,1.76-2.67,3.63-4.99,5.99-.78.47-.32-1.18-.84-.88-.43,1.07-2.09,3.11-3.7,5.27-1.63,2.15-3.21,4.43-3.65,5.81.37-.87-.03-1.21-.29-1.03l-.51,1.89c-1.37,1.58-1.62,1.78-1.79,1.26-1.81,2.56-1.24,2.34-.83,2.19.43-.14.69-.22-1.52,2.77.26-.52.01-.35.58-1.43-2.13,3.07-3.86,6.26-5.33,9.5-1.46,3.25-2.71,6.5-3.7,9.94-.79.93-.55-.66-.15-2.15.4-1.48.91-2.88.04-1.9-.81,2.47-1.44,5.14-1.37,8.12.05,1.48.32,3.1,1.14,4.64.77,1.56,2.24,2.85,3.75,3.48,1.51.66,3,.85,4.39.9,1.39.05,2.72-.03,4-.17,2.56-.28,4.99-.7,7.35-1.02l-1.78.15c1-1.96,7.15-.46,11.54-1.63-1.1.21-1.35,1.18-1.07.93,1.52-.06,3.02-.1,4.42,0,.71.04,1.35.17,1.96.31.58.17,1.07.4,1.5.69.39.32.74.72,1.02,1.28.27.57.41,1.33.47,2.18.07,1.74-.29,3.85-1,6.08-.02-.42-.06-.84-.11-1.26-.81,1.59-1.84,3.73-3.03,5.88-1.18,2.15-2.49,4.31-3.68,5.95-.15,1.31-1.5,3.21-.03,2.47-4.78,4.38-7.96,9.4-11.07,14.41-3.11,4.98-6.15,9.84-10.76,13.37.83-1.06,1.58-2.84.91-2l-5.52,7.87c1.26.04,1.26-.61,3.13-1.69-.28,1.33-1.61,3.74-3.09,5.6,2.16-3.8-1.29-.98-2.89.14.44-.05.31.66.65.73-4.51,2.84,1.05,1.91-4.12,6.56l-.19-.61c-1.37,2.19-2.27,4.48-4.05,6.6-1.6.24,1.22-2.51.59-3.21-1.15,1.57-1.88,3.44-2.68,5.18-.4.87-.81,1.71-1.31,2.48-.5.77-1.06,1.43-1.85,2.1.38-.85.9-1.73,1.42-2.59.52-.87,1.05-1.74,1.42-2.5-3.36,2.42-3.16,2.66-5.48,5.87l.23-.31c-.44.61-.9,1.24-1.31,1.87-.44.64-.85,1.28-1.22,1.93-.79,1.3-1.46,2.61-1.91,3.88.32-.67.66-1.34,1.08-2.01.28,1.2.29,2.21.19,3.35-.02.57-.1,1.16-.06,1.8.04.62.18,1.33.66,1.88.54.51,1.25.74,1.95.8.71.06,1.44,0,2.22-.15,1.53-.29,3.33-1,5.09-2.19-.84.57-1.55.98-2.1,1.29-.56.33-.96.55-1.22.69-.54.31-.56.41-.37.46.36.14,1.67-.13,1.09.65.23-.02.46-.01.73-.05.27-.05.55-.1.83-.15.56-.11,1.11-.17,1.61-.3.97-.22,1.62-.3,1.1.1,1.11-.68,2.04-1.26,2.99-1.7.47-.22.96-.43,1.42-.67l.35-.16.25-.1c.17-.07.34-.14.51-.21,1.38-.58,2.86-1.31,4.47-2.98.35.22,2.92-1.65,2.74-.54,3.37-2.32-1.13-.03-1.05-.59,2.42-2.09,5.73-3.67,9.27-5.58,3.54-1.89,7.27-4.13,10.61-7.22,6.09-4.79,6.76-6.35,12.46-10.67,1.11-.51.82-.05.27.54-.56.59-1.39,1.32-1.39,1.32,3.42-1.89,5.76-3.65,8.62-5.96-.5.59.22.28,1.27-.17,2.35-1.77,1.17-1.76,4.51-3.76-.42.57-.91,1.35-1.93,2.38,2.69-2.21,5.26-4.51,8.09-6.73.93-.33-1.49,1.64-2.4,2.56,3.16-2.52,8.23-6.46,9.03-7.48l-2.17,1.41c1.18-.87.8-.18-.03.53-2.59,2.32-4.1,2.83-4.36,2.8l2.02-1.58c-1.33.39-3.42,1.88-5.68,3.66-2.26,1.79-4.69,3.9-6.81,5.36l1.26-1.96c-1.32,1.19-2.61,2.4-3.91,3.62-1.06.44-2.01.41.02-1.13-3.33,1.65-2.5,2.12-5.45,3.42-.34.12-.24-.01,0-.22l-2.83,2.25c.46-.58-.93-.31,1.01-1.39-5.77,2.98-8.25,6.4-10.79,6.96l.41-.35c-7.33,5.15-.24,1.22-5.3,5.79-1.69.16-3.39.28-5.11.37l-.22,1.3c-.8.46-2.41,1.34-2.33.82-2.58,2.37.73.07-.63,1.67-4.27,1.51-10.36,6.63-12.1,5.52-1,1.51,4.04-1.46.16,1.33-1.05-.53-2.21.19-3.64,1.13-.34.23-.69.47-1.05.72-.35.23-.73.47-1.13.69-.79.45-1.69.81-2.44.88.67-.84,1.55-1.37,1.96-1.67.43-.33.27-.33-.91-.31-.78,1.2-2.21,1.8-3.34,1.91-.57.06-1.08,0-1.54-.15-.45-.14-.92-.35-1.28-.77-.16-.18-.25-.39-.36-.55-.63.43-1.07.35-1.2-.11-.12-.45.1-1.24.51-2.13.41-.9.99-1.89,1.59-2.89.61-1,1.2-1.97,1.8-3.06.05.37,1.78-1.77,3.99-4.33,2.21-2.59,4.93-5.69,6.81-7.61l.11.29c-.61-1.79,3.05-5.93,5.31-9.28.65.72.5,1.52-.52,3.49l2.35-2.96c.15-1.02.68-2.11,2.06-4.14l.35,1.49c3.09-3.99,5.2-8.82,9.79-13.5-.67-.96-5.61,2.18-2.04-3.7.64.17,1.61.59.72,2.17.29-.52.87-1.97,1.79-2.76l-.85,2.8c2.14-2.09.26-1.75,1.76-3.58.66.55,1.54-1.04,1.88-.36-.29.54-1.52,1.45-1.79,2.37,1.73-2.04,4.05-4.35,5.2-4.85-.53-.1-.92-.67.12-2.33,2.87-4.19,1.84-.83,3.88-3.04.22-1.34,2.51-3.75,1.51-4.51.82-1.25,1.44-1.18,2.03-1.49.48-1.27,2.06-3.95,3.09-6.16,1.03-2.21,1.55-3.86.32-2.78l-.38.57c.04-.12.1-.26.15-.41v.02s0-.02,0-.02c.75-2.06,1.52-4.17,2.3-6.29.36-1.08.74-2.16,1-3.31.28-1.14.49-2.32.5-3.58.01-1.24-.15-2.59-.77-3.85-.6-1.25-1.64-2.33-2.82-3.01-1.18-.68-2.45-1.06-3.64-1.2-1.2-.16-2.37-.17-3.48-.06v-.36c-2.7.3-5.51.84-8.11,1.41-2.59.58-4.95,1.18-6.66,1.8-1.48.24-3.51-.16-2.92-.62-1.82.32-2.83.49-4.02.5-.29-.01-.59-.03-.92-.06-.32-.05-.66-.11-1.03-.21-.72-.21-1.56-.58-2.21-1.31,1.26.57,1.14.24,1.06.18-.03-.05-.07-.05.14.05.1.05.26.12.5.23.28.07.61.22,1.16.3-.99-.25-1.66-.58-2.06-.94-.41-.36-.66-.69-.87-1.09-.4-.79-.88-1.84-1.06-4.28.33.83.6.05.93-1.2.32-1.25.82-3.02,1.08-4.12-.52.98-1,1.98-1.43,2.99.46-2.45,1.33-4.56,2.28-6.65l.44,1.53c2.36-4.26,4.07-8.42,5.94-12.26,1.87-3.83,3.92-7.28,6.89-9.87,1.08-2.54-3.55,4.22-2.73,1.85,2.81-3.77,6.76-6.82,7.67-7.93,2.17-2.31,2.93-3.61,3.72-4.94.8-1.32,1.63-2.72,4.13-4.87-.39.19-.86.29-.79-.1.08-.38.65-1.32,2.55-2.95.47-.34.92-.63,1.32-.85.41-.23.79-.39,1.05-.48.57-.17.92-.16,1.09-.05.32.22-.09.59-.71,1.04-.06.04-.12.07-.17.1-.09.05-.17.1-.25.15-.16.1-.3.18-.41.23-.22.11-.34.15-.34.1-1.11.9-2.49,2.24-.95,1.32l.3-.56c.28-.17.64-.39,1.04-.64.2-.11.4-.23.61-.35.13-.07.16-.08.21-.1.06-.03.11-.05.17-.07.45-.18.98-.31,1.25-.01.18.16.2.38.19.49,0,.12-.06.16-.16.14.28.43.33.63.41.43.03-.09.05-.27.02-.5-.02-.23-.09-.55-.32-.77.25.27.31.63.35.92.02.15.02.3.04.44,0,.07,0,.14,0,.21l.03.39c.03,1.15,0,2.27-.09,3.42-.17,2.29-.51,4.64-1.2,7.63.31-.93.69-1.77.52-.81-1.03,4.4-1.24,5.38-1.25,6.04-.05.64.08.96-.73,3.94-1.25,3.29-.23-1.38-1.81,4.63-1.31,3.56-.63.63-.34-.85-1.32,5.51-3.46,9.98-4.59,13,.32-.94.61-1.89.9-2.84-.52,1.71-1.04,3.07-1.55,4.47l.83-1.5c-.65,1.63-1.19,3.01-1.27,2.94-.51,1.74.9-1.12-.23,2.29-.97,2.13-2.68,6.61-3.27,7.23,3.01-6.71-.55.64,1.82-5.12-.43,1.12-.98,2.48-1.72,4.07-.13.23.05-.25.22-.7-1.49,3.18-1.77,3.95-2.02,4.76-.25.81-.5,1.66-2.09,4.95.28-.89-.94,1.42-1.45,2.5,1.28-2.65.82-1.16-.33,1.29-2.21,4.13-2.29,4.55-3.47,6.7l1.37-2.44c-.37.88-1.48,2.95-3.08,5.8-.2.21,1.42-2.61.82-1.61-1.64,3.24-4.2,7.04-6.82,11.37-1.3,1.95-.22.13-1.36,1.84-3.03,4.79-3.4,5.11-6.81,10,1.04-1.37,1.23-1.6-1.2,1.82,1.94-2.63,3.8-5.32,5.61-8.04-1.14,1.76-2.3,3.51-3.51,5.23,1.74-2.4,3.54-5.15,4.52-6.62-1.62,2.53-1.46,2.26-.62,1.12-2.35,3.3-4.52,6.64-7.4,10.33l-.02-.2c-2.16,2.78-4.06,5.26-6.23,7.86-2.15,2.61-4.54,5.38-7.69,8.69.67-.71,1.36-1.41,2.02-2.13-.78.94-3.85,4.12-5.95,6.21.17-.22-1.17,1.05-2.11,1.9.18-.03-4.98,4.46-5.53,5.08-1.04.87-2.14,1.68-3.22,2.5-2.92,2.25-4.58,3.52-6.19,4.82-1.62,1.27-3.19,2.58-6.17,4.48,1.65-1.35-1.13.26,2.77-2.41-1.98,1.28-3.82,2.34-3.75,2.5-.63.29-2,1.18-3.44,2.12-1.48.89-3.01,1.89-4.05,2.24-.82.56-.92,1.05-3.29,2.22-.29.07-.07-.16-.07-.16.07.15-3.59,2.06-1.34,1.38-3.51,1.11-8.15,3.16-12.72,5.03-4.56,1.86-9.15,3.41-12.34,3.49-4.82,1.47-10.83,2.51-15.3,2.21.3-.15.03-.27.87-.17-3.03-.42-3.96-.27-5.07-.12-.55.07-1.14.13-2-.03-.87-.14-2-.54-3.52-1.45-1.33-1.29-.46-.89.49-.43.98.45,2.12.91,1.18.35-.07-1.03-1.88-1.69-3.81-3.12-1.96-1.36-4.02-3.62-4.72-5.86.2.32.45.58.67.87-.38-.78-.76-1.67-1.32-2.55-.47-.94-1.07-1.91-1.59-3.03-1.09-2.2-2.16-4.82-2.63-7.77,0,0,.21.25.26-.01-.78-1.92-1.49-4.84-1.81-8.05-.34-3.2-.29-6.66-.03-9.59.43,1.89.06,2.67.83,1.65.1-1.29-.19-1.14-.45-1.3-.25-.16-.54-.67-.19-3.29.3-.82.78-2.13,1.22-3.27.51-1.13,1.01-2.09,1.41-2.23l-.58,2.36c-.17.79-.32,1.59-.48,2.38,1.3-2.26,1.39-6.11,2.46-8.46l.25.44c1.22-3.45,1.84-5.21,2.6-7.01.2-.45.38-.91.61-1.38.25-.46.52-.95.84-1.48.66-1.05,1.54-2.28,2.93-3.68l-.76.41c.29-.47.55-.88.81-1.21.27-.31.52-.56.75-.77.47-.41.83-.7,1.26-.89.84-.42,1.61-.86,3.33-2.23.52.03,1.06.14,1.57.22,1.16-.77,3.39-1.84,6.12-2.54,2.71-.73,5.88-.99,8.51-.84-1.51.18-3.79.34-6.08.79-2.3.43-4.58,1.17-6.19,1.96,1.27-.46,3.52-1.09,5.7-1.4,2.17-.34,4.24-.43,4.99-.6-1.15.04-2.58.26-3.7.23,3.38-.95,8.25-1.01,13.84.65-.71.61,2.9,1.62,6.75,3.63,1.93.99,3.89,2.24,5.41,3.56,1.53,1.3,2.57,2.66,2.94,3.57,1.56,1.72,2.56,3.79,2.5,5.94,0,2.19-.93,4.5-2.22,6.65-1.31,2.16-2.98,4.21-4.84,6.21-1.91,1.97-4.01,3.89-6.28,5.81,1.87-1.04,1.23-.47.23.38-1.03.82-2.4,1.91-1.85,2.02-2.23,1.71-3.12,2.31-3.36,2.39-2.44,1.46-4.93,2.81-7.47,4.06-1.85.8,2.22-1.48,1.9-1.51-2.65,1.51-3.25,1.74-3.64,1.83-.38.09-.55.05-2.37.91.43-.06,0,.26-.93.78-.47.26-1.06.57-1.74.9-.68.31-1.45.64-2.25.97l2.3-.85,2.28-.92c-1.86,1.05-3.26,1.68-4.4,2.14-1.13.49-2.03.72-2.91,1.01-.88.29-1.78.53-2.95.91-1.17.39-2.62.88-4.65,1.56.85-.29,1.69-.66,2.53-.99-2.06.76-5.96,1.86-9.92,2.48-1.98.32-3.96.5-5.72.57-.88.08-1.69,0-2.43.03-.74.03-1.38-.02-1.91-.04-.75-.18-1.7-.49.17-.26-.63-.11-1.28-.15-1.91-.32-.63-.16-1.27-.31-1.91-.47-.62-.23-1.24-.46-1.86-.69-.62-.24-1.19-.59-1.79-.88-2.36-1.25-4.34-3.23-5.88-5.46-1.54-2.23-2.64-4.7-3.43-7.09-.79-2.39-1.27-4.69-1.55-6.72l.27.76c-.39-1.92-.82-3.34-.93-5.82.07.12.21.78.13-.13-.17-1.03-.65-5.22-.57-7.85l.2,2.24c-.07-5.17,0-9.15.1-12.93.12-3.78.28-7.35.76-11.7.2.04.58-1.98,1.03-4.49.45-2.52,1-5.54,1.36-7.55l.04.15c1.04-5.97,1.96-11.03,2.9-15.99.93-4.95,1.89-9.79,3.13-15.28,2.17-6.66,6.24-22.81,9.88-33.45-.61,1.61-.4-.41.1-2.34.89-2.49,1.64-7.12,2.12-6.54l-.28.9c.58-.87,1.24-2.61,1.89-4.66.32-1.03.65-2.12.95-3.27.15-.6.3-1.1.42-1.94.01-.16.03-.2.03-.5,0-.13.02-.16-.07-.61-.02-.09-.05-.17-.08-.26l-.05-.13-.03-.07c-.03-.07-.08-.15-.12-.23-.18-.31-.49-.63-.83-.82-.36-.21-.67-.29-.94-.31-.59-.09-1.38.2-1.73.51-.09.08-.18.16-.26.25-.08.09-.16.18-.23.28l-.09.13c-.1.15-.19.32-.22.39-.2.41-.3.66-.42.95.18.35.37.68.57,1.01-4.9,10.27-7.79,28.02-10.84,33.46-.48,2.64-1.41,5.81-1.88,8.43l-.55-.3c-2.23,7.06-3.36,10.58-5.8,19.39l.07-1.92c-1.52,4.93.01,6.77-1.27,11.36l-1.4,1.09c-2.53,8.64-6.08,17.07-7.74,25.85-.11-.19-.34-.53.05-1.93-1.25,4.04-5.59,15.39-3.66,14.38-.99-.2-2.89,8.8-3.99,13.55l-.48-.95c-.37,4.18-.15,4.4-1.74,9.89-.53,1.25-.95.93-.19-.71-1.84,4.14-.46,3.56-2.67,8.58l.23-2.08c-1.61,4.35-1.25,4.08-1.61,6.67-.72,2.85-3.35,8.14-4.25,8.49.15.73-.31,3.29-1.62,5.68-.38.23-.12-.74.01-1.22-1.8,3.4-2.87,6-3.98,8.23-.28.55-.56,1.08-.86,1.58-.24.41-.4.68-.66,1-.48.57-1.1,1.19-1.86,1.04-.02-.21-.1-.37-.21-.49-.04-.07-.1-.12-.15-.19.06.03.12.04.18.06.35.08.69-.09.95-.29.27-.19.49-.43.69-.65.2-.23.37-.45.53-.68.3-.42.56-.82.8-1.2.94-1.5,1.43-2.43,1.36-2.22-.3-.16-1.05.8-1.61,1.27-.56.48-.89.54-.39-1.28-.2.53-.44,1.1-.69,1.69-.13.29-.27.59-.41.9-.11.2-.07.18-.07.24,0,.05-.01.1-.02.16-.04.22-.12.49-.28.76-.15.27-.42.57-.74.61-.43.05-.75-.29-.96-.65-.1-.19-.18-.39-.24-.6-.03-.1-.05-.21-.07-.31-.03-.16-.05-.33-.08-.48.01-.22.04-.44.1-.62l.17.43c-.16-.99-.37-1.91-.61-2.78-.09-1.47-.11-2.43-.23-3.87.48-.59-.08-5.58-.1-8.05-.72.22-.68-3.01-1.21.03.04-.39.09.47.18,2.1.04.37.06.8.12,1.05-.02-.05-.05-.1-.07-.16.09,1.61.21,3.71.45,6.06-.55-1.87-.99-3.89-.7-6.63-.52-1.25-1.03-2.64-1.27-3.42.92-3.42,1.49-9.94,2.12-10.85-.35-7.57.06-17.87-1.08-22.7-.1-2.17.44-2.47.66-3.28.09,1.25.03,2.74.2,3.42-.2-4.33.23-12.82-.61-13.88.54-5.44.72,3.09.77-4.41l.24,1.02c.86-7.35.42-13.37.01-19.58-.42-6.21-.76-12.6-.15-20.79-.07,1.14-.11,1.7-.23,1.94.17-9.34-.4-18.97-1.54-28.52-.57-4.77-1.3-9.53-2.27-14.2-.99-4.66-2.19-9.27-4.11-13.61-1.15-2.45-2.09-3.68-2.93-4.6-.86-.91-1.62-1.58-2.99-2.53-.21-.36-.46-.7-.72-1.05-.87-.47-1.78-.85-2.72-1.11l-.71-.17-.72-.11c-.47-.09-.95-.11-1.43-.11-2.02-.11-3.87.17-5.62.63-1.75.47-3.42,1.12-5.07,1.94-3.27,1.68-6.51,4.02-9.92,7.59l1.06-.72c-1.32,1.18-3.3,3.16-4.86,4.82-1.56,1.66-2.73,2.98-2.61,2.69-.22.29-.63.98-1.6,1.97h-.16c-1.82,2.25-3.58,4.53-5.3,6.84-2.08,2.63-1.98,2.38-2.12,2.42-.13.05-.53.39-3.36,4.38-2.07,3-5.69,8.65-4.91,7.53.82-1.21,2.14-3.07,2.26-3.13l-1.87,2.75c-.11.29-.5.98-.28.76.23-.21,1.08-1.33,3.57-4.55l3.32-4.6,1.22-1.37c-.98,1.25-1.95,2.51-2.91,3.78,1.73-2.09,2.72-3.49,3.85-5.04.34-.31.88-.9,1.61-1.75l3.33-4.45c.54-.42-1.43,2.05,1.07-.72,1.6-2.05-1.88,1.68.88-1.63,1.93-1.91,1.51-1.23,3.56-3.64.38-.25-.03.28-.86,1.22,1.82-2.16,5.2-5.33,6.13-6.45,1.12-.86,2.91-2.4,4.48-3.58,1.57-1.2,2.92-2.01,2.94-1.73.33-.29,1.3-1.02,2.49-1.76,1.2-.74,2.64-1.45,3.81-1.85-1.01.53-.96.6-.35.43.6-.19,1.79-.52,3.07-.72,1.29-.17,2.64-.09,3.57.12.45.15.81.28,1.01.38.2.13.24.22.09.27.73.07,1.72.42,2.77,1.11,1.05.68,2.12,1.76,3.08,3.06,1.94,2.6,3.33,6.08,4.44,8.9-.17-.3-.47-.9-.62-1.41,1.03,3.24,1.02,4.29,1.4,6.45.36.14.88,1.5,1.38,3.2.51,1.7.99,3.73,1.41,5.14-.03,4.31-1.16-2.43-1.58-1,.25-.15.67,1.64,1.01,3.3.34,1.66.63,3.18.78,2.43-.06,3.29.1,2.82-.33,4.55.94.48.41,3.01,1.14,5.67-.18,4.76-.78,1.27-.25,6.45-.2,2.48-.71-2.11-.71-2.11ZM61.99,347.59s-.01,0-.01,0c-.11-.38-.22-.74-.32-1.08-.07-.28-.14-.54-.2-.79-.1-.45-.19-.84-.25-1.15.06.28.13.61.23,1.04.06.22.12.47.19.75.09.36.22.77.36,1.22ZM72.23,349.2c-1.15,1.42-2.73,3.17-4.9,3.48-.47-.27.12-.39,1.27-.91-.31.22.24.13,1.04-.34.81-.46,1.83-1.38,2.59-2.23ZM65.36,335c.2,1.61.1,2.15-.03,2.38-.07-.76-.16-1.65-.27-2.82-.03-.05-.07-.14-.1-.19.15.15.29.32.4.62Z"/>
    <path class="cls-1" d="M64.27,332.11c-.03-.24-.06-.37-.08-.67-.05.34-.1.66-.13.98.09.2.17.4.25.57-.02-.3-.03-.6-.05-.88Z"/>
    <path class="cls-1" d="M284.59,266.18l.12-.19c-.12.15-.24.28-.36.35.12-.11.15-.09.23-.16Z"/>
    <polygon class="cls-1" points="118.78 211.6 118.64 211.58 118.53 212.5 118.78 211.6"/>
    <path class="cls-1" d="M247.55,310.64c-.15.02-.37.12-.71.4.08.02.37-.16.71-.4Z"/>
    <path class="cls-1" d="M231.95,331.25c-1,1.31-1.93,2.69-2.79,4.11,1.18-1.84,2.08-3.11,2.79-4.11Z"/>
    <path class="cls-1" d="M235.57,345.84c.4-.29.56-.48.7-.65-.02,0-.03,0-.04,0l-.66.65Z"/>
    <path class="cls-1" d="M264.33,261.04c-.13.22-.25.45-.36.64-.84,1.52-.26.49.36-.64Z"/>
    <path class="cls-1" d="M274.03,196.7c.59-.78,1.21-1.53,1.9-2.28-1.23,1.09-2.13,1.99-1.9,2.28Z"/>
    <path class="cls-1" d="M197.45,336.47s0,0,0-.01c-.18.13-.34.24-.53.36.18-.11.35-.23.52-.34Z"/>
    <path class="cls-1" d="M279.18,191.59c-1.38.95-2.39,1.89-3.26,2.83,1.01-.89,2.24-1.9,3.26-2.83Z"/>
    <path class="cls-1" d="M308.3,299.74l.74-.55s0-.06.05-.12l-.79.67Z"/>
    <path class="cls-1" d="M309.1,299.07l.79-.66c-.38.29-.7.53-.79.66Z"/>
    <path class="cls-1" d="M311.55,297.03l-1.67,1.38c.6-.45,1.34-1,1.67-1.38Z"/>
    <path class="cls-1" d="M287.71,314.59l-.1.38c.1-.14.14-.26.1-.38Z"/>
    <path class="cls-1" d="M281.45,319.11c1.55-.99,4.09-2.2,6.09-3.83l.08-.31c-.77,1.02-4.98,2.78-6.17,4.14Z"/>
    <path class="cls-1" d="M252.23,333.02c1.91-.97,3.81-1.97,5.7-2.97-1.16.25-2.69.56-.22-.98-7.57,3.08,1.88-.1-5.49,3.95Z"/>
    <path class="cls-1" d="M237.49,339.53c1.1-.43,1.16-.64,1.07-.79-.1-.15-.34-.26-.18-.45-.68.41-1.2.64-1.39.83-.19.17-.07.35.5.41Z"/>
    <path class="cls-1" d="M258.36,247.07l.27-.88c-2.4.28-.02.34-.27.88Z"/>
    <path class="cls-1" d="M250.3,228.53c-.53.74-1.05,1.49-1.55,2.26.04.48.1.97.15,1.45.42-1.26.9-2.49,1.4-3.71Z"/>
    <path class="cls-1" d="M262.89,217.03l-.54,1.01c.72-1.27,1.45-2.53,2.21-3.78-.57.92-1.13,1.84-1.67,2.77Z"/>
    <path class="cls-1" d="M169.98,343.83l1.01.52c1.64-.71,1.68-1.63-1.01-.52Z"/>
    <path class="cls-1" d="M137.76,282.99c.98-.59,3.1-2.23,4.27-3.47-.44.32-.89.62-1.34.92-.44.29-.83.64-1.22.93-.78.57-1.37,1.18-1.72,1.62Z"/>
    <polygon class="cls-1" points="121.73 183.51 122.21 181.42 121.15 185.29 121.73 183.51"/>
  </g>
</svg>