<?xml version="1.0" encoding="UTF-8"?>
<svg id="Layer_1" data-name="Layer 1" xmlns="http://www.w3.org/2000/svg" viewBox="0 0 565.83 565.83">
  <polygon points="521.59 172.16 470.7 121.27 444.56 95.13 393.67 44.24 129.69 222.69 0 544.1 8.79 552.89 234.35 327.34 238.49 331.48 12.93 557.04 21.72 565.83 343.14 436.13 521.59 172.16"/>
  <path d="M521.23,171.8l-127.2-127.2c-10.19-10.19-10.19-26.77,0-36.96s26.77-10.19,36.96,0l127.2,127.2c10.19,10.19,10.19,26.77,0,36.96s-26.77,10.19-36.96,0ZM418.51,20.12c-3.31-3.31-8.69-3.31-12,0s-3.31,8.69,0,12l127.2,127.2c3.31,3.31,8.69,3.31,12,0s3.31-8.69,0-12l-127.2-127.2Z"/>
</svg>